<?xml version="1.0" standalone="no"?>
<!DOCTYPE svg PUBLIC "-//W3C//DTD SVG 20010904//EN"
 "http://www.w3.org/TR/2001/REC-SVG-20010904/DTD/svg10.dtd">
<svg version="1.0" xmlns="http://www.w3.org/2000/svg"
 width="512.000000pt" height="512.000000pt" viewBox="0 0 512.000000 512.000000"
 preserveAspectRatio="xMidYMid meet">
<metadata>
Created by potrace 1.11, written by Peter Selinger 2001-2013
</metadata>
<g transform="translate(0.000000,512.000000) scale(0.100000,-0.100000)"
fill="#000000" stroke="none">
<path d="M2325 5030 c-446 -50 -831 -192 -1184 -438 -573 -398 -943 -1010
-1042 -1722 -18 -124 -18 -496 0 -620 64 -461 227 -852 510 -1220 89 -117 325
-350 444 -439 364 -272 748 -430 1197 -492 124 -17 496 -18 620 0 461 63 853
227 1220 510 102 78 325 299 402 396 452 576 630 1264 512 1975 -67 404 -241
790 -512 1135 -76 97 -300 317 -403 397 -343 266 -734 435 -1154 499 -148 23
-481 33 -610 19z m426 -480 c455 -45 869 -237 1198 -554 624 -603 788 -1536
404 -2316 l-66 -135 -18 54 c-66 191 -195 367 -347 469 -67 46 -161 94 -217
112 -22 7 -43 15 -47 19 -4 4 13 46 38 94 52 101 95 221 120 339 26 117 25
380 0 498 -111 515 -491 895 -1006 1006 -119 26 -381 26 -500 0 -514 -111
-895 -492 -1006 -1006 -25 -118 -26 -381 0 -498 25 -116 66 -233 117 -332 24
-47 44 -89 44 -93 0 -4 -37 -23 -82 -41 -249 -100 -429 -288 -522 -542 l-29
-78 -66 134 c-273 557 -274 1202 -2 1755 102 207 200 347 356 508 428 444
1027 667 1631 607z m-1 -893 c209 -57 368 -171 480 -344 89 -136 125 -259 125
-433 0 -225 -76 -411 -230 -565 -154 -154 -340 -230 -565 -230 -174 0 -297 36
-433 125 -217 141 -347 365 -364 626 -26 400 254 753 662 833 67 13 257 6 325
-12z m-862 -1866 c46 -32 163 -87 252 -119 149 -52 237 -66 420 -66 240 0 395
38 607 149 l102 54 138 -39 c174 -50 228 -78 302 -154 108 -114 131 -187 131
-427 l0 -168 -79 -59 c-365 -275 -829 -419 -1281 -398 -421 19 -793 152 -1127
403 l-73 55 0 167 c0 177 11 244 51 324 31 61 131 160 192 190 42 22 300 104
330 106 5 1 21 -7 35 -18z"/>
</g>
</svg>
